<svg xmlns="http://www.w3.org/2000/svg" xmlns:xlink="http://www.w3.org/1999/xlink" width="1000" zoomAndPan="magnify" viewBox="0 0 750 749.999995" height="1000" preserveAspectRatio="xMidYMid meet" version="1.0"><defs><clipPath id="64a9c2f65c"><path d="M 75 119.921875 L 585 119.921875 L 585 629.921875 L 75 629.921875 Z M 75 119.921875 " clip-rule="nonzero"/></clipPath><clipPath id="8fa7dca826"><path d="M 189.84375 119.921875 L 470.308594 119.921875 C 500.769531 119.921875 529.976562 132.019531 551.515625 153.558594 C 573.054688 175.097656 585.152344 204.304688 585.152344 234.765625 L 585.152344 515.230469 C 585.152344 545.691406 573.054688 574.898438 551.515625 596.4375 C 529.976562 617.976562 500.769531 630.074219 470.308594 630.074219 L 189.84375 630.074219 C 159.382812 630.074219 130.175781 617.976562 108.636719 596.4375 C 87.097656 574.898438 75 545.691406 75 515.230469 L 75 234.765625 C 75 204.304688 87.097656 175.097656 108.636719 153.558594 C 130.175781 132.019531 159.382812 119.921875 189.84375 119.921875 Z M 189.84375 119.921875 " clip-rule="nonzero"/></clipPath></defs><g clip-path="url(#64a9c2f65c)"><g clip-path="url(#8fa7dca826)"><path stroke-linecap="butt" transform="matrix(0.75, 0, 0, 0.75, 74.999999, 119.921887)" fill="none" stroke-linejoin="miter" d="M 153.125019 -0.0000159411 L 527.078186 -0.0000159411 C 567.692774 -0.0000159411 606.635486 16.130194 635.35424 44.848947 C 664.072993 73.567701 680.203203 112.510413 680.203203 153.125001 L 680.203203 527.078168 C 680.203203 567.692756 664.072993 606.635469 635.35424 635.354222 C 606.635486 664.072976 567.692774 680.203186 527.078186 680.203186 L 153.125019 680.203186 C 112.510431 680.203186 73.567718 664.072976 44.848965 635.354222 C 16.130211 606.635469 0.00000134 567.692756 0.00000134 527.078168 L 0.00000134 153.125001 C 0.00000134 112.510413 16.130211 73.567701 44.848965 44.848947 C 73.567718 16.130194 112.510431 -0.0000159411 153.125019 -0.0000159411 Z M 153.125019 -0.0000159411 " stroke="#0a0a0a" stroke-width="120" stroke-opacity="1" stroke-miterlimit="4"/></g></g></svg>