<svg xmlns="http://www.w3.org/2000/svg" xmlns:xlink="http://www.w3.org/1999/xlink" width="1000" zoomAndPan="magnify" viewBox="0 0 750 749.999995" height="1000" preserveAspectRatio="xMidYMid meet" version="1.0"><defs><g/><clipPath id="dbd5845449"><path d="M 7.5 7.5 L 742.5 7.5 L 742.5 742.5 L 7.5 742.5 Z M 7.5 7.5 " clip-rule="nonzero"/></clipPath><clipPath id="58bdeb5434"><path d="M 375 7.5 C 172.035156 7.5 7.5 172.035156 7.5 375 C 7.5 577.964844 172.035156 742.5 375 742.5 C 577.964844 742.5 742.5 577.964844 742.5 375 C 742.5 172.035156 577.964844 7.5 375 7.5 Z M 375 7.5 " clip-rule="nonzero"/></clipPath><clipPath id="fc17bdc26d"><rect x="0" width="734" y="0" height="750"/></clipPath></defs><g clip-path="url(#dbd5845449)"><g clip-path="url(#58bdeb5434)"><path stroke-linecap="butt" transform="matrix(0.75, 0, 0, 0.75, 7.500002, 7.50002)" fill="none" stroke-linejoin="miter" d="M 490.000052 -0.0000261793 C 219.38023 -0.0000261793 -0.000003046 219.380207 -0.000003046 490.000029 C -0.000003046 760.619851 219.38023 980.000084 490.000052 980.000084 C 760.619874 980.000084 980.000107 760.619851 980.000107 490.000029 C 980.000107 219.380207 760.619874 -0.0000261793 490.000052 -0.0000261793 Z M 490.000052 -0.0000261793 " stroke="#a6a6a6" stroke-width="140" stroke-opacity="1" stroke-miterlimit="4"/></g></g><g transform="matrix(1, 0, 0, 1, 16, -0.000000000000042435)"><g clip-path="url(#fc17bdc26d)"><g fill="#a6a6a6" fill-opacity="1"><g transform="translate(0.302281, 615.606069)"><g><path d="M 359.21875 0 C 329.101562 0 314.046875 -15.773438 314.046875 -47.328125 L 314.046875 -298.265625 C 314.046875 -329.816406 329.101562 -345.59375 359.21875 -345.59375 C 389.332031 -345.59375 404.390625 -329.816406 404.390625 -298.265625 L 404.390625 -47.328125 C 404.390625 -15.773438 389.332031 0 359.21875 0 Z M 358.5 -397.21875 C 343.207031 -397.21875 330.179688 -402.710938 319.421875 -413.703125 C 308.671875 -424.703125 303.296875 -437.847656 303.296875 -453.140625 C 303.296875 -468.441406 308.671875 -481.46875 319.421875 -492.21875 C 330.179688 -502.976562 343.207031 -508.359375 358.5 -508.359375 C 373.789062 -508.359375 386.8125 -502.976562 397.5625 -492.21875 C 408.320312 -481.46875 413.703125 -468.441406 413.703125 -453.140625 C 413.703125 -437.847656 408.320312 -424.703125 397.5625 -413.703125 C 386.8125 -402.710938 373.789062 -397.21875 358.5 -397.21875 Z M 358.5 -397.21875 "/></g></g></g></g></g></svg>